<svg width="114" height="24" viewBox="0 0 114 24" fill="none" xmlns="http://www.w3.org/2000/svg">
<path d="M0.00266553 23.5386V0.461949C-0.00439143 0.399974 0.00260536 0.337207 0.0231638 0.278316C0.0437223 0.219426 0.0772724 0.165938 0.121366 0.12182C0.16546 0.0777008 0.218968 0.0440825 0.277847 0.0234909C0.336726 0.00289926 0.39947 -0.00413987 0.461449 0.00288219H9.57392C14.0975 0.00288219 16.6543 2.26466 16.6543 6.16536V6.4932C16.6543 8.91876 15.3432 10.7545 13.2781 11.4428C15.8677 12.0328 17.4084 14.0324 17.4084 16.917V17.2777C17.4084 21.5716 14.6222 23.9974 9.73797 23.9974H0.461449C0.399486 24.0045 0.336722 23.9974 0.277847 23.9769C0.218972 23.9563 0.165527 23.9227 0.12143 23.8786C0.0773321 23.8345 0.0437278 23.781 0.0231638 23.7222C0.00259988 23.6633 -0.004387 23.6005 0.00266553 23.5386ZM8.82009 9.50908C10.5902 9.50908 11.6719 8.59093 11.6719 7.08325V6.82103C11.6719 5.31334 10.6231 4.42802 8.82009 4.42802H5.11601V9.50908H8.82009ZM9.14793 19.572C11.1475 19.572 12.2948 18.6216 12.2948 16.9826V16.5238C12.2948 14.8518 11.1475 13.9011 9.14793 13.9011H5.11601V19.572H9.14793Z" fill="black"/>
<path d="M20.654 23.5384V0.461763C20.647 0.39979 20.654 0.337035 20.6745 0.278146C20.6951 0.219256 20.7286 0.165752 20.7727 0.121633C20.8168 0.0775146 20.8703 0.0439133 20.9292 0.0233205C20.9881 0.00272769 21.0508 -0.00432398 21.1128 0.00269605H25.3085C25.3705 -0.00432451 25.4333 0.00272835 25.4922 0.0233205C25.5511 0.0439126 25.6045 0.077515 25.6486 0.121633C25.6927 0.165752 25.7263 0.21924 25.7469 0.27813C25.7674 0.33702 25.7744 0.399788 25.7674 0.461763V23.5384C25.7744 23.6003 25.7674 23.6631 25.7468 23.722C25.7263 23.7809 25.6927 23.8343 25.6486 23.8784C25.6045 23.9225 25.551 23.9561 25.4921 23.9767C25.4333 23.9972 25.3705 24.0042 25.3085 23.9972H21.1128C21.0509 24.0042 20.9881 23.9972 20.9292 23.9767C20.8703 23.9561 20.8169 23.9225 20.7728 23.8784C20.7287 23.8343 20.6951 23.7809 20.6745 23.722C20.654 23.6631 20.647 23.6003 20.654 23.5384Z" fill="black"/>
<path d="M46.0926 23.5384V0.461763C46.0855 0.39979 46.0925 0.337035 46.1131 0.278146C46.1336 0.219257 46.1672 0.165752 46.2113 0.121633C46.2554 0.0775146 46.3088 0.0439135 46.3677 0.0233205C46.4266 0.0027275 46.4893 -0.00432356 46.5513 0.00269605H50.7471C50.809 -0.00432451 50.8718 0.00272835 50.9307 0.0233205C50.9895 0.0439126 51.0431 0.077515 51.0871 0.121633C51.1312 0.165752 51.1648 0.21924 51.1853 0.27813C51.2059 0.33702 51.2129 0.399788 51.2058 0.461763V19.277H58.6479C58.7099 19.27 58.7727 19.277 58.8315 19.2976C58.8904 19.3181 58.9438 19.3517 58.9879 19.3958C59.032 19.4399 59.0656 19.4934 59.0862 19.5523C59.1068 19.6111 59.1138 19.6739 59.1067 19.7359V23.5384C59.1138 23.6003 59.1068 23.6631 59.0862 23.722C59.0656 23.7809 59.032 23.8343 58.9879 23.8784C58.9438 23.9225 58.8904 23.9561 58.8315 23.9767C58.7727 23.9972 58.7099 24.0042 58.6479 23.9972H46.5513C46.4893 24.0042 46.4266 23.9972 46.3677 23.9767C46.3089 23.9561 46.2554 23.9225 46.2113 23.8784C46.1672 23.8343 46.1336 23.7809 46.1131 23.722C46.0925 23.6631 46.0855 23.6003 46.0926 23.5384Z" fill="black"/>
<path d="M30.3894 23.5384V0.461763C30.3823 0.39979 30.3893 0.337035 30.4099 0.278146C30.4304 0.219256 30.464 0.165752 30.5081 0.121633C30.5522 0.0775146 30.6057 0.0439133 30.6646 0.0233205C30.7234 0.00272769 30.7862 -0.00432398 30.8482 0.00269605H35.0439C35.1059 -0.00432451 35.1687 0.00272835 35.2276 0.0233205C35.2864 0.0439126 35.3399 0.077515 35.384 0.121633C35.4281 0.165752 35.4617 0.21924 35.4822 0.27813C35.5028 0.33702 35.5098 0.399788 35.5027 0.461763V19.277H42.9447C43.0067 19.27 43.0695 19.277 43.1284 19.2976C43.1872 19.3181 43.2407 19.3517 43.2848 19.3958C43.3289 19.4399 43.3625 19.4934 43.383 19.5523C43.4036 19.6111 43.4106 19.6739 43.4036 19.7359V23.5384C43.4106 23.6003 43.4036 23.6631 43.383 23.722C43.3625 23.7809 43.3289 23.8343 43.2848 23.8784C43.2407 23.9225 43.1872 23.9561 43.1284 23.9767C43.0695 23.9972 43.0067 24.0042 42.9447 23.9972H30.8482C30.7862 24.0042 30.7234 23.9972 30.6646 23.9767C30.6057 23.9561 30.5522 23.9225 30.5081 23.8784C30.4641 23.8343 30.4304 23.7809 30.4099 23.722C30.3893 23.6631 30.3823 23.6003 30.3894 23.5384Z" fill="black"/>
<path d="M81.531 23.5384V0.461763C81.5239 0.39979 81.531 0.337035 81.5515 0.278146C81.5721 0.219256 81.6056 0.165752 81.6497 0.121633C81.6938 0.0775146 81.7473 0.0439133 81.8062 0.0233205C81.865 0.00272769 81.9278 -0.00432398 81.9898 0.00269605H86.1855C86.2475 -0.00432451 86.3103 0.00272835 86.3691 0.0233205C86.428 0.0439126 86.4815 0.077515 86.5256 0.121633C86.5697 0.165752 86.6033 0.21924 86.6238 0.27813C86.6444 0.33702 86.6514 0.399788 86.6444 0.461763V19.277H94.0864C94.1484 19.27 94.2111 19.277 94.27 19.2976C94.3289 19.3181 94.3823 19.3517 94.4264 19.3958C94.4705 19.4399 94.5041 19.4934 94.5247 19.5523C94.5453 19.6111 94.5522 19.6739 94.5452 19.7359V23.5384C94.5522 23.6003 94.5453 23.6631 94.5247 23.722C94.5041 23.7809 94.4705 23.8343 94.4264 23.8784C94.3823 23.9225 94.3289 23.9561 94.27 23.9767C94.2111 23.9972 94.1484 24.0042 94.0864 23.9972H81.9898C81.9278 24.0042 81.8651 23.9972 81.8062 23.9767C81.7473 23.9561 81.6938 23.9225 81.6497 23.8784C81.6056 23.8343 81.5721 23.7809 81.5515 23.722C81.531 23.6631 81.5239 23.6003 81.531 23.5384Z" fill="black"/>
<path d="M61.7966 23.5384V0.461763C61.7895 0.399788 61.7966 0.33702 61.8172 0.27813C61.8377 0.21924 61.8713 0.165752 61.9154 0.121633C61.9595 0.077515 62.013 0.0439126 62.0718 0.0233205C62.1307 0.00272835 62.1935 -0.00432451 62.2554 0.00269605H70.1224C75.4001 0.00269605 78.2191 3.11675 78.2191 7.64031V9.27948C78.2191 13.934 75.4001 16.8843 70.1224 16.8843H66.9099V23.5384C66.917 23.6003 66.91 23.6631 66.8894 23.722C66.8689 23.7809 66.8353 23.8343 66.7912 23.8784C66.7471 23.9225 66.6936 23.9561 66.6348 23.9767C66.5759 23.9972 66.5131 24.0042 66.4512 23.9972H62.2554C62.1935 24.0042 62.1307 23.9972 62.0718 23.9767C62.013 23.9561 61.9595 23.9225 61.9154 23.8784C61.8713 23.8343 61.8377 23.7809 61.8172 23.722C61.7966 23.6631 61.7895 23.6003 61.7966 23.5384ZM69.729 12.3279C72.2533 12.3279 73.1053 11.1804 73.1053 8.95165V8.00096C73.1053 5.8376 72.2533 4.59214 69.729 4.59214H66.9099V12.3279H69.729Z" fill="black"/>
<path d="M113.071 0.00274658H97.6652C97.5434 0.00277945 97.4267 0.0511612 97.3406 0.137247C97.2545 0.223333 97.2061 0.34007 97.2061 0.461814V4.26434C97.206 4.3246 97.2179 4.38426 97.241 4.43993C97.2641 4.4956 97.2979 4.54619 97.3405 4.5888C97.3831 4.63141 97.4336 4.66521 97.4893 4.68826C97.545 4.71132 97.6046 4.72317 97.6649 4.72316H107.532L97.5282 18.8813C97.3186 19.1782 97.2061 19.5327 97.2061 19.8961V23.5382C97.2061 23.6599 97.2545 23.7767 97.3406 23.8628C97.4267 23.9489 97.5434 23.9972 97.6652 23.9973H113.071C113.132 23.9973 113.191 23.9854 113.247 23.9623C113.303 23.9393 113.353 23.9055 113.396 23.8629C113.438 23.8203 113.472 23.7697 113.495 23.714C113.518 23.6584 113.53 23.5987 113.53 23.5385V19.7359C113.53 19.6757 113.518 19.616 113.495 19.5603C113.472 19.5047 113.438 19.4541 113.396 19.4115C113.353 19.3689 113.303 19.3351 113.247 19.312C113.191 19.289 113.132 19.2771 113.071 19.2771H103.008L113.211 4.74667C113.419 4.45069 113.53 4.09791 113.53 3.73631V0.461814C113.53 0.340072 113.482 0.223332 113.396 0.137247C113.31 0.0511624 113.193 0.00278493 113.071 0.00274658Z" fill="black"/>
</svg>
